# xmcd
#
# Track frame offsets:
#	150
#	16698
#	33903
#	46952
#	63051
#	76158
#	89942
#	111016
#	124957
#	138439
#	152223
#	167036
#	186773
#	198169
#	210875
#	221445
#	238830
#	254245
#
# Disc length: 3563 seconds
#
# Revision: 0
# Processed by: cddbd v1.5.2PL0 Copyright (c) Steve Scherf et al.
# Submitted via: EZCDAudioConverter 4.0.5.1
#
DISCID=f60de912
DTITLE=Various Artist - ERG NU COUNTRY TRAXX VOL. 248 U.S.
DYEAR=2019
DGENRE=COUNTRY
TTITLE0=Chris Janson - Done
TTITLE1=Carrie Underwood - Drinking Alone
TTITLE2=Morgan Evans - Diamonds
TTITLE3=Shane Owens - Hard Luck Girl
TTITLE4=Grace Asbury - Pour Me
TTITLE5=Jackson Michelson - Stay Over
TTITLE6=Aaron Watson - Country Radio
TTITLE7=Corey Farlow - We're Hooked
TTITLE8=Tara Shannon - Mutha
TTITLE9=Eileen Carey - Finally
TTITLE10=Genevieve Fisher - 1943 (Nanna's Song)
TTITLE11=Keith Urban - I'll Be Your Santa Tonight
TTITLE12=Adam Hambrick - What Christmas Means To Me
TTITLE13=Chris Janson - It Is Christmas
TTITLE14=Brett Eldredge - Holly Jolly Christmas
TTITLE15=Charlie Worsham - Santa Claus Is Coming To Town
TTITLE16=Devin Dawson - Christmas Time Is Here
TTITLE17=Keith and Kristyn Getty - Sleigh Ride
EXTD=
EXTT0=
EXTT1=
EXTT2=
EXTT3=
EXTT4=
EXTT5=
EXTT6=
EXTT7=
EXTT8=
EXTT9=
EXTT10=
EXTT11=
EXTT12=
EXTT13=
EXTT14=
EXTT15=
EXTT16=
EXTT17=
PLAYORDER=
